
<svg width="25px" height="25px" viewBox="0 0 25 25" version="1.1" xmlns="http://www.w3.org/2000/svg" xmlns:xlink="http://www.w3.org/1999/xlink">
    <!-- Generator: Sketch 44.1 (41455) - http://www.bohemiancoding.com/sketch -->
    <desc>Created with Sketch.</desc>
    <defs></defs>
    <g id="Page-1" stroke="none" stroke-width="1" fill="none" fill-rule="evenodd" opacity="0.699999988">
        <g id="visual-2" transform="translate(-1102.000000, -746.000000)" fill-rule="nonzero" fill="#FFFFFF">
            <g id="Close" transform="translate(1102.000000, 746.000000)">
                <path d="M15.4699531,12.4989437 L24.3826291,3.58626761 C25.2030516,2.76584507 25.2030516,1.43568075 24.3826291,0.615375587 C23.5622066,-0.205046948 22.2321596,-0.205046948 21.4117371,0.615375587 L12.4989437,9.52816901 L3.58615023,0.615258216 C2.7657277,-0.205164319 1.43568075,-0.205164319 0.615258216,0.615258216 C-0.205046948,1.43568075 -0.205046948,2.76584507 0.615258216,3.58615023 L9.52805164,12.4988263 L0.615258216,21.4116197 C-0.205046948,22.2320423 -0.205046948,23.5622066 0.615258216,24.3825117 C1.43568075,25.2029343 2.7657277,25.2029343 3.58615023,24.3825117 L12.4989437,15.4697183 L21.4117371,24.3825117 C22.2320423,25.2029343 23.5622066,25.2029343 24.3826291,24.3825117 C25.2030516,23.5620892 25.2030516,22.2320423 24.3826291,21.4116197 L15.4699531,12.4989437 Z" id="Shape"></path>
            </g>
        </g>
    </g>
</svg>